<svg width="29" height="29" viewBox="0 0 29 29" fill="none" xmlns="http://www.w3.org/2000/svg">
<rect x="0.75" y="0.828125" width="28" height="28" rx="14" fill="#F6ECFF"/>
<path d="M16.938 22.6053C16.4627 22.5823 15.9933 22.4905 15.5442 22.3329C15.2144 22.2153 14.8713 22.1391 14.5227 22.1059C14.1896 22.1233 13.8593 22.1766 13.5376 22.2648C12.8656 22.4283 12.0984 22.6144 11.3811 22.2921C10.6637 21.9697 10.296 21.2751 9.9782 20.6622C9.83658 20.36 9.65817 20.0763 9.44702 19.8178C9.19738 19.5776 8.9182 19.3701 8.6162 19.2003C8.03508 18.8417 7.38132 18.4331 7.11346 17.7294C6.8456 17.0257 7.04536 16.2811 7.2542 15.6319C7.36762 15.2985 7.4393 14.9523 7.46758 14.6013C7.45507 14.2677 7.4017 13.9368 7.30868 13.6161C7.14524 12.9442 6.9591 12.1815 7.28144 11.4596C7.65203 10.8235 8.22623 10.3309 8.9113 10.0613C9.21381 9.91829 9.49745 9.73834 9.75574 9.52561C9.99448 9.27639 10.2018 8.9989 10.3732 8.69933C10.7318 8.09551 11.1404 7.44175 11.8487 7.17389C12.5569 6.90603 13.2924 7.12849 13.9462 7.33733C14.2758 7.45542 14.619 7.53169 14.9677 7.56433C15.3012 7.54781 15.6318 7.49297 15.9528 7.40089C16.6248 7.24199 17.392 7.05585 18.1093 7.37819C18.7448 7.74453 19.2389 8.31371 19.5122 8.99443C19.6538 9.2967 19.8322 9.58033 20.0434 9.83887C20.2987 10.0803 20.584 10.2879 20.8924 10.4563C21.4735 10.815 22.1272 11.2236 22.3951 11.9273C22.663 12.631 22.4405 13.3755 22.2453 14.0293C22.1276 14.3591 22.0514 14.7022 22.0183 15.0508C22.0308 15.3844 22.0842 15.7153 22.1772 16.036C22.3406 16.7079 22.5268 17.4706 22.2044 18.1925C21.8821 18.9098 21.1875 19.2775 20.5746 19.5999C20.2715 19.7426 19.9865 19.9209 19.7256 20.131C19.4872 20.3878 19.2814 20.673 19.1127 20.98C18.754 21.5611 18.3454 22.2149 17.6417 22.4828C17.4167 22.5668 17.1782 22.6083 16.938 22.6053ZM14.4819 20.9573H14.5545C15.0034 20.9902 15.4461 21.0818 15.8711 21.2297C16.3008 21.4221 16.7772 21.4852 17.2422 21.4113C17.5872 21.2842 17.8596 20.8393 18.1502 20.3717C18.3715 19.9805 18.6415 19.6189 18.9538 19.2957C19.2869 19.0141 19.6546 18.7761 20.0479 18.5874C20.5029 18.4176 20.8955 18.1137 21.1738 17.7158C21.2873 17.2434 21.2541 16.7477 21.0785 16.2947C20.9555 15.8801 20.8868 15.4513 20.8742 15.019C20.9071 14.5701 20.9986 14.1275 21.1466 13.7024C21.339 13.2727 21.4021 12.7963 21.3282 12.3313C21.1965 11.9863 20.7562 11.7139 20.2885 11.4233C19.8974 11.202 19.5358 10.932 19.2126 10.6197C18.9342 10.2861 18.6992 9.91844 18.5134 9.52561C18.3421 9.07151 18.0384 8.67928 17.6417 8.39969C17.1697 8.28647 16.6745 8.31811 16.2207 8.49049C15.8046 8.62109 15.3719 8.69141 14.9359 8.69933C14.4834 8.66203 14.0378 8.56588 13.6102 8.41331C13.1822 8.22604 12.7089 8.16766 12.2482 8.24533C11.9032 8.37699 11.6308 8.81737 11.3402 9.28499C11.1183 9.67299 10.8483 10.0315 10.5366 10.3519C10.2035 10.6335 9.8358 10.8715 9.44248 11.0601C8.98839 11.2314 8.59616 11.5351 8.31656 11.9318C8.20334 12.4038 8.23499 12.899 8.40736 13.3528C8.53545 13.7695 8.60572 14.2018 8.6162 14.6376C8.57891 15.0901 8.48275 15.5357 8.33018 15.9633C8.14291 16.3913 8.08454 16.8647 8.1622 17.3253C8.29386 17.6704 8.73424 17.9428 9.20186 18.2333C9.59305 18.4546 9.95459 18.7246 10.2778 19.0369C10.5563 19.3706 10.7912 19.7382 10.977 20.131C11.1483 20.5851 11.452 20.9774 11.8487 21.257C12.3212 21.3682 12.8163 21.335 13.2697 21.1616C13.6643 21.0461 14.0712 20.9775 14.4819 20.9573Z" fill="#5D1CAA"/>
<path d="M13.8791 16.9935C13.8061 16.9944 13.7336 16.9808 13.6658 16.9535C13.598 16.9263 13.5363 16.8859 13.4842 16.8346L11.8498 15.232C11.7967 15.1801 11.7544 15.1183 11.7252 15.0501C11.696 14.9819 11.6806 14.9086 11.6797 14.8344C11.6789 14.7602 11.6927 14.6865 11.7203 14.6177C11.7479 14.5488 11.7888 14.486 11.8407 14.433C11.8925 14.3799 11.9544 14.3376 12.0226 14.3084C12.0908 14.2792 12.1641 14.2638 12.2383 14.2629C12.3125 14.2621 12.3861 14.2759 12.455 14.3035C12.5239 14.3311 12.5866 14.372 12.6397 14.4239L13.8837 15.6406L16.8483 12.8167C16.9013 12.761 16.9651 12.7167 17.0358 12.6864C17.1065 12.6562 17.1826 12.6406 17.2595 12.6406C17.3365 12.6407 17.4125 12.6563 17.4832 12.6867C17.5539 12.7171 17.6176 12.7615 17.6706 12.8172C17.7236 12.8729 17.7647 12.9389 17.7914 13.011C17.8181 13.0831 17.8299 13.1599 17.826 13.2367C17.8221 13.3135 17.8027 13.3887 17.7688 13.4578C17.735 13.5269 17.6875 13.5883 17.6292 13.6385L14.2696 16.8165C14.2194 16.8702 14.159 16.9136 14.092 16.944C14.025 16.9743 13.9527 16.9912 13.8791 16.9935Z" fill="#5D1CAA"/>
</svg>
