<svg width="29" height="29" viewBox="0 0 29 29" fill="none" xmlns="http://www.w3.org/2000/svg">
<rect x="0.75" y="0.828125" width="28" height="28" rx="14" fill="#F6ECFF"/>
<path d="M11.0728 12.6846L16.457 18.0688M11.0728 18.0688L16.457 12.6846" stroke="#5D1CAA" stroke-linecap="round"/>
<path d="M14.0537 22.1608C15.2978 22.1602 16.5214 21.8431 17.6091 21.2393C18.6969 20.6355 19.6131 19.7648 20.2716 18.7092C20.9301 17.6536 21.3092 16.4479 21.3731 15.2054C21.4371 13.9629 21.1838 12.7246 20.6372 11.607C20.0906 10.4893 19.2686 9.52918 18.2486 8.81686C17.2286 8.10454 16.0441 7.66347 14.8066 7.53518C13.5691 7.40689 12.3193 7.59559 11.1748 8.08352C10.0304 8.57145 9.0289 9.34256 8.26465 10.3243C8.15075 10.4706 8.09963 10.6562 8.12255 10.8402C8.14547 11.0242 8.24054 11.1915 8.38685 11.3054C8.53316 11.4193 8.71873 11.4704 8.90273 11.4475C9.08673 11.4246 9.25409 11.3295 9.36799 11.1832C10.064 10.2917 11.0001 9.61766 12.0663 9.24032C13.1325 8.86298 14.2843 8.79808 15.3861 9.05328C16.4879 9.30848 17.4938 9.87314 18.2855 10.6808C19.0772 11.4885 19.6217 12.5055 19.8549 13.6122C20.0881 14.7188 20.0002 15.8691 19.6017 16.9275C19.2031 17.986 18.5105 18.9085 17.6053 19.5866C16.7002 20.2646 15.6201 20.6699 14.4923 20.7548C13.3645 20.8398 12.236 20.6007 11.2395 20.0658C11.0765 19.9778 10.8852 19.9582 10.7078 20.0113C10.5303 20.0643 10.3812 20.1857 10.2933 20.3486C10.2053 20.5116 10.1857 20.7029 10.2387 20.8803C10.2917 21.0578 10.4131 21.2069 10.5761 21.2949C11.6461 21.8659 12.8408 22.1634 14.0537 22.1608Z" fill="#5D1CAA"/>
<path d="M8.81701 11.686H11.6103C11.7955 11.686 11.9731 11.6124 12.1041 11.4815C12.235 11.3505 12.3086 11.1729 12.3086 10.9877C12.3086 10.8025 12.235 10.6249 12.1041 10.4939C11.9731 10.3629 11.7955 10.2894 11.6103 10.2894H9.51532V8.19441C9.51532 8.00921 9.44175 7.83159 9.31079 7.70063C9.17983 7.56967 9.00221 7.49609 8.81701 7.49609C8.6318 7.49609 8.45418 7.56967 8.32322 7.70063C8.19226 7.83159 8.11869 8.00921 8.11869 8.19441V10.9877C8.11869 11.1729 8.19226 11.3505 8.32322 11.4815C8.45418 11.6124 8.6318 11.686 8.81701 11.686Z" fill="#5D1CAA"/>
</svg>
