<svg width="29" height="29" viewBox="0 0 29 29" fill="none" xmlns="http://www.w3.org/2000/svg">
<rect x="0.75" y="0.828125" width="28" height="28" rx="14" fill="#F6ECFF"/>
<path d="M17.76 11.1439C17.8574 11.0943 17.9511 11.0379 18.0406 10.9751C18.7656 10.4661 18.989 9.53008 18.5371 8.88951C18.0853 8.24895 17.1319 8.14467 16.4069 8.65861C15.6819 9.17255 15.3095 10.0813 14.9048 11.1414L17.76 11.1439ZM8.96094 14.446H20.5333V20.3303C20.5333 20.5937 20.4287 20.8463 20.2424 21.0326C20.0562 21.2188 19.8036 21.3234 19.5402 21.3234H9.95406C9.69067 21.3234 9.43806 21.2188 9.25182 21.0326C9.06557 20.8463 8.96094 20.5937 8.96094 20.3303V14.446Z" stroke="#5D1CAA" stroke-linecap="round" stroke-linejoin="round"/>
<path d="M16.2018 14.4453H13.2969V21.3227H16.2018V14.4453Z" stroke="#5D1CAA" stroke-linecap="round" stroke-linejoin="round"/>
<path d="M11.736 11.1439C11.6392 11.0948 11.5462 11.0384 11.458 10.9751C10.733 10.4661 10.507 9.53008 10.9614 8.88951C11.4158 8.24895 12.3667 8.14467 13.0941 8.65861C13.8216 9.17255 14.1891 10.0813 14.5962 11.1414L11.736 11.1439Z" stroke="#5D1CAA" stroke-linecap="round" stroke-linejoin="round"/>
<path d="M20.3394 11.1445H9.16672C8.75535 11.1445 8.42188 11.478 8.42188 11.8894V13.7018C8.42188 14.1132 8.75535 14.4467 9.16672 14.4467H20.3394C20.7507 14.4467 21.0842 14.1132 21.0842 13.7018V11.8894C21.0842 11.478 20.7507 11.1445 20.3394 11.1445Z" stroke="#5D1CAA" stroke-linecap="round" stroke-linejoin="round"/>
<path d="M16.465 11.1445H13.0312V14.4467H16.465V11.1445Z" stroke="#5D1CAA" stroke-linecap="round" stroke-linejoin="round"/>
</svg>
