<svg width="25" height="10" viewBox="0 0 25 10" fill="none" xmlns="http://www.w3.org/2000/svg">
<path d="M7.25955 5.90959L3.23673 2.91615C2.6053 2.4794 1.75292 2.55728 1.21055 3.10128C0.595358 3.71834 0.648358 4.73397 1.32448 5.28322L5.10311 8.25715C6.28811 9.2199 7.24354 9.18896 8.20236 9.18896C8.20236 9.18896 13.5667 9.18434 13.6157 9.18196C15.6124 9.08471 16.2942 8.39659 17.1364 6.58265H20.009V2.3789H18.4023C18.4023 2.3789 17.4237 1.68478 16.3447 1.37453C14.4029 0.816091 12.7935 1.40946 11.4632 3.04809L8.45129 3.07009C8.30698 3.07009 8.10423 3.10434 7.89348 3.15147C6.84336 3.38628 6.32529 4.60865 6.92704 5.50121C6.96842 5.56259 7.01361 5.62015 7.06242 5.67309C7.15854 5.77734 7.19817 5.8574 7.25955 5.90959ZM7.25955 5.90959C7.26805 5.91684 7.27705 5.92359 7.28661 5.92972L7.25955 5.90959Z" stroke="#5D1CAA" stroke-width="1.25" stroke-miterlimit="10" stroke-linecap="round" stroke-linejoin="round"/>
<path d="M23.562 1.72266H20.0078V7.23884H23.562V1.72266Z" stroke="#5D1CAA" stroke-width="1.25" stroke-miterlimit="10" stroke-linecap="round" stroke-linejoin="round"/>
<path d="M7.25781 5.90918L7.28487 5.9293C7.27531 5.92318 7.26637 5.91643 7.25781 5.90918Z" stroke="#5D1CAA" stroke-width="1.25" stroke-miterlimit="10" stroke-linecap="round" stroke-linejoin="round"/>
<path d="M7.28906 5.92969H11.2755" stroke="#5D1CAA" stroke-width="1.25" stroke-miterlimit="10" stroke-linecap="round" stroke-linejoin="round"/>
</svg>
