<svg width="26" height="28" viewBox="0 0 26 28" fill="none" xmlns="http://www.w3.org/2000/svg">
<path d="M8.08376 23.7377L4.06095 20.7443C3.42951 20.3075 2.57714 20.3854 2.03476 20.9294C1.41958 21.5465 1.47258 22.5621 2.1487 23.1113L5.92733 26.0853C7.11233 27.048 8.06776 27.0171 9.02658 27.0171C9.02658 27.0171 14.391 27.0125 14.44 27.0101C16.4366 26.9128 17.1185 26.2247 17.9606 24.4108H20.8333V20.207H19.2265C19.2265 20.207 18.248 19.5129 17.169 19.2027C15.2271 18.6442 13.6178 19.2376 12.2875 20.8762L9.27551 20.8982C9.1312 20.8982 8.92845 20.9325 8.7177 20.9796C7.66758 21.2144 7.14951 22.4368 7.75126 23.3293C7.79264 23.3907 7.83783 23.4483 7.88664 23.5012C7.98276 23.6055 8.02239 23.6855 8.08376 23.7377ZM8.08376 23.7377C8.09226 23.745 8.10126 23.7517 8.11083 23.7578L8.08376 23.7377Z" stroke="#5D1CAA" stroke-width="1.25" stroke-miterlimit="10" stroke-linecap="round" stroke-linejoin="round"/>
<path d="M24.3862 19.5508H20.832V25.067H24.3862V19.5508Z" stroke="#5D1CAA" stroke-width="1.25" stroke-miterlimit="10" stroke-linecap="round" stroke-linejoin="round"/>
<path d="M8.08203 23.7373L8.10909 23.7574C8.09953 23.7513 8.09059 23.7446 8.08203 23.7373Z" stroke="#5D1CAA" stroke-width="1.25" stroke-miterlimit="10" stroke-linecap="round" stroke-linejoin="round"/>
<path d="M8.11328 23.7578H12.0997" stroke="#5D1CAA" stroke-width="1.25" stroke-miterlimit="10" stroke-linecap="round" stroke-linejoin="round"/>
<path d="M12.3755 15.4835C16.4748 15.4835 19.7979 12.1604 19.7979 8.06108C19.7979 3.9618 16.4748 0.638672 12.3755 0.638672C8.27625 0.638672 4.95312 3.9618 4.95312 8.06108C4.95312 12.1604 8.27625 15.4835 12.3755 15.4835Z" fill="#F6ECFF"/>
<path d="M14.0479 7.06487C14.32 7.06487 14.5178 7.32337 14.4466 7.58598C14.3978 7.76601 14.2345 7.89101 14.0479 7.89101H10.7216C10.4489 7.89101 10.251 7.63143 10.3233 7.36848C10.3726 7.18916 10.5356 7.06487 10.7216 7.06487H14.0479ZM12.9045 11.946C12.6385 11.946 12.3863 11.8277 12.2163 11.6232L10.3952 9.4327C10.3191 9.34111 10.2771 9.22589 10.2766 9.10678C10.2753 8.82231 10.5056 8.59102 10.79 8.59102H11.3653C11.6259 8.59102 11.8435 8.54792 12.018 8.46173C12.1946 8.37345 12.3281 8.25047 12.4184 8.09281C12.5109 7.93305 12.5572 7.74596 12.5572 7.53155C12.5572 7.20992 12.4626 6.95136 12.2734 6.75586C12.0842 6.56036 11.7815 6.46262 11.3653 6.46262H10.8051C10.4877 6.46262 10.2551 6.16396 10.3328 5.85621C10.3874 5.63987 10.582 5.48828 10.8051 5.48828H11.3653C11.895 5.48828 12.3333 5.57026 12.6802 5.73423C13.0291 5.89609 13.2898 6.12522 13.4622 6.42162C13.6366 6.71802 13.7239 7.06487 13.7239 7.46217C13.7239 7.81323 13.6598 8.12645 13.5315 8.40182C13.4033 8.6772 13.2015 8.90318 12.9261 9.07976C12.6512 9.25601 12.2915 9.37362 11.847 9.43259C11.8454 9.43281 11.8438 9.43318 11.8422 9.4337C11.8251 9.43941 11.819 9.46052 11.8304 9.47453L13.7901 11.8777C13.7962 11.8852 13.7995 11.8945 13.7995 11.9041C13.7995 11.9273 13.7808 11.946 13.7577 11.946H12.9045ZM14.045 5.48828C14.3214 5.48828 14.522 5.75134 14.4488 6.01789C14.3987 6.20033 14.2326 6.32654 14.0434 6.32584L11.5143 6.31643C11.2409 6.31542 11.0435 6.05453 11.1169 5.79122C11.1668 5.61215 11.3299 5.48828 11.5158 5.48828H14.045Z" fill="#5D1CAA"/>
</svg>
