<svg width="32" height="33" viewBox="0 0 32 33" fill="none" xmlns="http://www.w3.org/2000/svg">
<rect x="1.75" y="2.82812" width="28" height="28" rx="14" fill="#F6ECFF"/>
<path d="M22.4593 18.1093L23.8842 19.2394L23.1191 19.8851L21.7188 18.7551L22.4593 18.1093ZM23.9438 16.2949V16.5019C23.9438 16.8926 23.8888 17.2436 23.7789 17.5548C23.6713 17.8636 23.5168 18.128 23.3156 18.3479C23.1167 18.5655 22.8816 18.7328 22.6102 18.8498C22.3388 18.9645 22.0393 19.0218 21.7118 19.0218C21.3819 19.0218 21.08 18.9645 20.8063 18.8498C20.5349 18.7328 20.2986 18.5655 20.0974 18.3479C19.8985 18.128 19.7441 17.8636 19.6341 17.5548C19.5265 17.2436 19.4727 16.8926 19.4727 16.5019V16.2949C19.4727 15.9041 19.5265 15.5532 19.6341 15.242C19.7441 14.9308 19.8973 14.6664 20.0938 14.4488C20.2927 14.2289 20.5279 14.0616 20.7993 13.947C21.073 13.83 21.3748 13.7715 21.7047 13.7715C22.0323 13.7715 22.3318 13.83 22.6032 13.947C22.8769 14.0616 23.1132 14.2289 23.3121 14.4488C23.5133 14.6664 23.6689 14.9308 23.7789 15.242C23.8888 15.5532 23.9438 15.9041 23.9438 16.2949ZM22.6909 16.5019V16.2878C22.6909 16.0351 22.6687 15.8129 22.6242 15.621C22.5821 15.4268 22.519 15.2642 22.4347 15.1332C22.3505 15.0022 22.2464 14.9039 22.1224 14.8384C22.0007 14.7705 21.8615 14.7366 21.7047 14.7366C21.541 14.7366 21.3982 14.7705 21.2766 14.8384C21.1549 14.9039 21.0531 15.0022 20.9712 15.1332C20.8893 15.2642 20.8273 15.4268 20.7852 15.621C20.7455 15.8129 20.7256 16.0351 20.7256 16.2878V16.5019C20.7256 16.7523 20.7455 16.9745 20.7852 17.1687C20.8273 17.3606 20.8893 17.5232 20.9712 17.6566C21.0555 17.7899 21.1584 17.8905 21.2801 17.9584C21.4041 18.0262 21.548 18.0602 21.7118 18.0602C21.8685 18.0602 22.0077 18.0262 22.1294 17.9584C22.2511 17.8905 22.3528 17.7899 22.4347 17.6566C22.519 17.5232 22.5821 17.3606 22.6242 17.1687C22.6687 16.9745 22.6909 16.7523 22.6909 16.5019Z" fill="#5D1CAA"/>
<path d="M18.827 16.2949V16.5019C18.827 16.8926 18.7721 17.2436 18.6621 17.5548C18.5545 17.8636 18.4012 18.128 18.2023 18.3479C18.0035 18.5655 17.7683 18.7328 17.4969 18.8498C17.2255 18.9645 16.926 19.0218 16.5985 19.0218C16.2686 19.0218 15.9668 18.9645 15.693 18.8498C15.4216 18.7328 15.1853 18.5655 14.9841 18.3479C14.7852 18.128 14.6308 17.8636 14.5208 17.5548C14.4132 17.2436 14.3594 16.8926 14.3594 16.5019V16.2949C14.3594 15.9041 14.4132 15.5532 14.5208 15.242C14.6308 14.9308 14.784 14.6664 14.9806 14.4488C15.1794 14.2289 15.4146 14.0616 15.686 13.947C15.9597 13.83 16.2616 13.7715 16.5915 13.7715C16.919 13.7715 17.2185 13.83 17.4899 13.947C17.7636 14.0616 18 14.2289 18.1988 14.4488C18.3977 14.6664 18.5521 14.9308 18.6621 15.242C18.7721 15.5532 18.827 15.9041 18.827 16.2949ZM17.5776 16.5019V16.2878C17.5776 16.0351 17.5554 15.8129 17.511 15.621C17.4688 15.4268 17.4057 15.2642 17.3214 15.1332C17.2372 15.0022 17.1331 14.9039 17.0091 14.8384C16.8874 14.7705 16.7482 14.7366 16.5915 14.7366C16.4277 14.7366 16.285 14.7705 16.1633 14.8384C16.0416 14.9039 15.9398 15.0022 15.858 15.1332C15.7761 15.2642 15.7141 15.4268 15.6719 15.621C15.6322 15.8129 15.6123 16.0351 15.6123 16.2878V16.5019C15.6123 16.7523 15.6322 16.9745 15.6719 17.1687C15.7141 17.3606 15.7761 17.5232 15.858 17.6566C15.9422 17.7899 16.0451 17.8905 16.1668 17.9584C16.2908 18.0262 16.4347 18.0602 16.5985 18.0602C16.7552 18.0602 16.8944 18.0262 17.0161 17.9584C17.1378 17.8905 17.2396 17.7899 17.3214 17.6566C17.4057 17.5232 17.4688 17.3606 17.511 17.1687C17.5554 16.9745 17.5776 16.7523 17.5776 16.5019Z" fill="#5D1CAA"/>
<path d="M8.66535 13.8418H9.66908L10.8097 17.397L11.9503 13.8418H12.954L11.2168 18.9517H10.4026L8.66535 13.8418ZM8.05469 13.8418H9.09352L9.28654 17.7585V18.9517H8.05469V13.8418ZM12.5259 13.8418H13.5682V18.9517H12.3328V17.7585L12.5259 13.8418Z" fill="#5D1CAA"/>
</svg>
