<svg width="32" height="33" viewBox="0 0 32 33" fill="none" xmlns="http://www.w3.org/2000/svg">
<rect x="1.75" y="2.82812" width="28" height="28" rx="14" fill="#F6ECFF"/>
<path d="M17.938 24.6053C17.4627 24.5823 16.9933 24.4905 16.5442 24.3329C16.2144 24.2153 15.8713 24.1391 15.5227 24.1059C15.1896 24.1233 14.8593 24.1766 14.5376 24.2648C13.8656 24.4283 13.0984 24.6144 12.3811 24.2921C11.6637 23.9697 11.296 23.2751 10.9782 22.6622C10.8366 22.36 10.6582 22.0763 10.447 21.8178C10.1974 21.5776 9.9182 21.3701 9.6162 21.2003C9.03508 20.8417 8.38132 20.4331 8.11346 19.7294C7.8456 19.0257 8.04536 18.2811 8.2542 17.6319C8.36762 17.2985 8.4393 16.9523 8.46758 16.6013C8.45507 16.2677 8.4017 15.9368 8.30868 15.6161C8.14524 14.9442 7.9591 14.1815 8.28144 13.4596C8.65203 12.8235 9.22623 12.3309 9.9113 12.0613C10.2138 11.9183 10.4975 11.7383 10.7557 11.5256C10.9945 11.2764 11.2018 10.9989 11.3732 10.6993C11.7318 10.0955 12.1404 9.44175 12.8487 9.17389C13.5569 8.90603 14.2924 9.12849 14.9462 9.33733C15.2758 9.45542 15.619 9.53169 15.9677 9.56433C16.3012 9.54781 16.6318 9.49297 16.9528 9.40089C17.6248 9.24199 18.392 9.05585 19.1093 9.37819C19.7448 9.74453 20.2389 10.3137 20.5122 10.9944C20.6538 11.2967 20.8322 11.5803 21.0434 11.8389C21.2987 12.0803 21.584 12.2879 21.8924 12.4563C22.4735 12.815 23.1272 13.2236 23.3951 13.9273C23.663 14.631 23.4405 15.3755 23.2453 16.0293C23.1276 16.3591 23.0514 16.7022 23.0183 17.0508C23.0308 17.3844 23.0842 17.7153 23.1772 18.036C23.3406 18.7079 23.5268 19.4706 23.2044 20.1925C22.8821 20.9098 22.1875 21.2775 21.5746 21.5999C21.2715 21.7426 20.9865 21.9209 20.7256 22.131C20.4872 22.3878 20.2814 22.673 20.1127 22.98C19.754 23.5611 19.3454 24.2149 18.6417 24.4828C18.4167 24.5668 18.1782 24.6083 17.938 24.6053ZM15.4819 22.9573H15.5545C16.0034 22.9902 16.4461 23.0818 16.8711 23.2297C17.3008 23.4221 17.7772 23.4852 18.2422 23.4113C18.5872 23.2842 18.8596 22.8393 19.1502 22.3717C19.3715 21.9805 19.6415 21.6189 19.9538 21.2957C20.2869 21.0141 20.6546 20.7761 21.0479 20.5874C21.5029 20.4176 21.8955 20.1137 22.1738 19.7158C22.2873 19.2434 22.2541 18.7477 22.0785 18.2947C21.9555 17.8801 21.8868 17.4513 21.8742 17.019C21.9071 16.5701 21.9986 16.1275 22.1466 15.7024C22.339 15.2727 22.4021 14.7963 22.3282 14.3313C22.1965 13.9863 21.7562 13.7139 21.2885 13.4233C20.8974 13.202 20.5358 12.932 20.2126 12.6197C19.9342 12.2861 19.6992 11.9184 19.5134 11.5256C19.3421 11.0715 19.0384 10.6793 18.6417 10.3997C18.1697 10.2865 17.6745 10.3181 17.2207 10.4905C16.8046 10.6211 16.3719 10.6914 15.9359 10.6993C15.4834 10.662 15.0378 10.5659 14.6102 10.4133C14.1822 10.226 13.7089 10.1677 13.2482 10.2453C12.9032 10.377 12.6308 10.8174 12.3402 11.285C12.1183 11.673 11.8483 12.0315 11.5366 12.3519C11.2035 12.6335 10.8358 12.8715 10.4425 13.0601C9.98839 13.2314 9.59616 13.5351 9.31656 13.9318C9.20334 14.4038 9.23499 14.899 9.40736 15.3528C9.53545 15.7695 9.60572 16.2018 9.6162 16.6376C9.57891 17.0901 9.48275 17.5357 9.33018 17.9633C9.14291 18.3913 9.08454 18.8647 9.1622 19.3253C9.29386 19.6704 9.73424 19.9428 10.2019 20.2333C10.593 20.4546 10.9546 20.7246 11.2778 21.0369C11.5563 21.3706 11.7912 21.7382 11.977 22.131C12.1483 22.5851 12.452 22.9774 12.8487 23.257C13.3212 23.3682 13.8163 23.335 14.2697 23.1616C14.6643 23.0461 15.0712 22.9775 15.4819 22.9573Z" fill="#5D1CAA"/>
<path d="M13.0611 14.1357L18.4453 19.52M13.0611 19.52L18.4453 14.1357" stroke="#5D1CAA" stroke-linecap="round"/>
</svg>
