<svg width="32" height="33" viewBox="0 0 32 33" fill="none" xmlns="http://www.w3.org/2000/svg">
<rect x="2" y="2.82812" width="28" height="28" rx="14" fill="#F6ECFF"/>
<path d="M8.96094 10.3691C8.6848 10.3691 8.46094 10.593 8.46094 10.8691C8.46094 11.1453 8.6848 11.3691 8.96094 11.3691V10.3691ZM19.5543 19.9762C19.8304 19.9762 20.0543 19.7524 20.0543 19.4762C20.0543 19.2001 19.8304 18.9762 19.5543 18.9762V19.9762ZM10.8055 11.6266L10.3204 11.7479L10.8055 11.6266ZM8.96094 11.3691H9.83537V10.3691H8.96094V11.3691ZM10.3204 11.7479L10.4621 12.3146L11.4323 12.072L11.2906 11.5053L10.3204 11.7479ZM10.4621 12.3146L11.7863 17.6112L12.7564 17.3687L11.4323 12.072L10.4621 12.3146ZM12.2714 16.99H11.9403V17.99H12.2714V16.99ZM11.9403 19.9762H19.5543V18.9762H11.9403V19.9762ZM10.4472 18.4831C10.4472 19.3077 11.1157 19.9762 11.9403 19.9762V18.9762C11.668 18.9762 11.4472 18.7554 11.4472 18.4831H10.4472ZM11.9403 16.99C11.1157 16.99 10.4472 17.6585 10.4472 18.4831H11.4472C11.4472 18.2108 11.668 17.99 11.9403 17.99V16.99ZM10.9472 12.6933H19.5977V11.6933H10.9472V12.6933ZM20.0827 13.3146L19.2586 16.6112L20.2287 16.8538L21.0529 13.5571L20.0827 13.3146ZM18.7735 16.99H12.2714V17.99H18.7735V16.99ZM19.0543 22.1246C19.0543 22.2141 18.9817 22.2866 18.8922 22.2866V23.2866C19.534 23.2866 20.0543 22.7664 20.0543 22.1246H19.0543ZM18.8922 22.2866C18.8027 22.2866 18.7301 22.2141 18.7301 22.1246H17.7301C17.7301 22.7664 18.2504 23.2866 18.8922 23.2866V22.2866ZM18.7301 22.1246C18.7301 22.035 18.8027 21.9625 18.8922 21.9625V20.9625C18.2504 20.9625 17.7301 21.4828 17.7301 22.1246H18.7301ZM18.8922 21.9625C18.9817 21.9625 19.0543 22.035 19.0543 22.1246H20.0543C20.0543 21.4828 19.534 20.9625 18.8922 20.9625V21.9625ZM12.4334 22.1246C12.4334 22.2141 12.3609 22.2866 12.2714 22.2866V23.2866C12.9132 23.2866 13.4334 22.7664 13.4334 22.1246H12.4334ZM12.2714 22.2866C12.1818 22.2866 12.1093 22.2141 12.1093 22.1246H11.1093C11.1093 22.7664 11.6296 23.2866 12.2714 23.2866V22.2866ZM12.1093 22.1246C12.1093 22.035 12.1818 21.9625 12.2714 21.9625V20.9625C11.6296 20.9625 11.1093 21.4828 11.1093 22.1246H12.1093ZM12.2714 21.9625C12.3609 21.9625 12.4334 22.035 12.4334 22.1246H13.4334C13.4334 21.4828 12.9132 20.9625 12.2714 20.9625V21.9625ZM19.2586 16.6112C19.2029 16.8338 19.0029 16.99 18.7735 16.99V17.99C19.4618 17.99 20.0618 17.5215 20.2287 16.8538L19.2586 16.6112ZM19.5977 12.6933C19.9229 12.6933 20.1616 12.999 20.0827 13.3146L21.0529 13.5571C21.2896 12.6104 20.5735 11.6933 19.5977 11.6933V12.6933ZM9.83537 11.3691C10.0648 11.3691 10.2648 11.5253 10.3204 11.7479L11.2906 11.5053C11.1236 10.8376 10.5237 10.3691 9.83537 10.3691V11.3691Z" fill="#5D1CAA"/>
</svg>
